<svg aria-hidden="true" style="position: absolute; width: 0; height: 0; overflow: hidden;" version="1.1" xmlns="http://www.w3.org/2000/svg" xmlns:xlink="http://www.w3.org/1999/xlink">
<defs>
<symbol id="icon-facebook" viewBox="0 0 32 32">
<path d="M19.52 4.64h0.96v3.6h-1.2c-0.48 0-0.96 0-1.2 0.24s-0.24 0.48-0.24 1.040v1.28h2.64v3.040h-2.64v13.2h-4.080v-13.28h-2.16v-3.040h2.16v-1.040c0-1.76 0.24-3.040 0.72-3.6 0.72-1.040 2.16-1.52 4.32-1.52 0.24 0.080 0.48 0.080 0.72 0.080z"></path>
</symbol>
<symbol id="icon-instagram" viewBox="0 0 32 32">
<path d="M28.718 10.757c-0.016-1.134-0.233-2.213-0.617-3.208l0.021 0.063c-0.682-1.722-2.021-3.059-3.7-3.722l-0.044-0.015c-0.921-0.356-1.985-0.573-3.097-0.596l-0.010-0c-1.367-0.061-1.801-0.078-5.271-0.078-3.472 0-3.917 0-5.274 0.078-1.063 0.023-2.113 0.223-3.106 0.597-1.724 0.678-3.064 2.015-3.73 3.693l-0.015 0.044c-0.357 0.918-0.574 1.981-0.596 3.091l-0 0.009c-0.061 1.367-0.080 1.8-0.080 5.265 0 3.466 0 3.909 0.080 5.265 0.023 1.063 0.223 2.11 0.597 3.104 0.682 1.721 2.021 3.058 3.7 3.721l0.044 0.015c0.917 0.37 1.979 0.601 3.091 0.638l0.016 0c1.369 0.061 1.802 0.080 5.274 0.080 3.471 0 3.917 0 5.274-0.080 1.122-0.023 2.187-0.239 3.172-0.616l-0.064 0.022c1.722-0.68 3.061-2.016 3.727-3.693l0.016-0.044c0.374-0.994 0.574-2.041 0.595-3.104 0.062-1.366 0.080-1.799 0.080-5.266-0.003-3.465-0.003-3.905-0.082-5.263zM15.989 22.531c-0.002 0-0.004 0-0.007 0-3.624 0-6.563-2.937-6.565-6.561v-0c0.003-3.624 2.941-6.561 6.566-6.561 0.002 0 0.004 0 0.006 0h-0c3.629 0 6.571 2.937 6.571 6.561-0.004 3.624-2.942 6.56-6.567 6.56-0.002 0-0.003 0-0.005 0h0zM22.823 10.696c-0.845 0-1.53-0.685-1.53-1.53s0.685-1.53 1.53-1.53v0c0.012-0 0.027-0.001 0.042-0.001 0.845 0 1.53 0.685 1.53 1.53s-0.685 1.53-1.53 1.53c-0.015 0-0.029-0-0.044-0.001l0.002 0z"></path>
<path d="M15.992 19.976c2.211 0 4.004-1.793 4.004-4.004s-1.793-4.004-4.004-4.004v0c-2.211 0-4.004 1.793-4.004 4.004s1.793 4.004 4.004 4.004v0z"></path>
</symbol>
<symbol id="icon-Logo" viewBox="0 0 32 32">
<path d="M1.207 16.31l-1.207-2.007h0.722l0.81 1.392h0.010l0.81-1.392h0.722l-1.207 2.007v1.387h-0.659v-1.387zM3.071 17.139v-2.279l0.558-0.558h1.745l0.558 0.558v2.279l-0.558 0.558h-1.745l-0.558-0.558zM5.025 17.135l0.247-0.247v-1.775l-0.247-0.247h-1.047l-0.247 0.247v1.775l0.247 0.247h1.047zM6.394 17.115v-2.812h0.659v2.584l0.247 0.247h0.95l0.247-0.247v-2.584h0.659v2.812l-0.582 0.582h-1.6l-0.582-0.582zM12.334 16.572v1.125h-0.659v-0.975l-0.291-0.325h-1.057v1.299h-0.659v-3.394h2.128l0.519 0.524v1.028l-0.33 0.335 0.349 0.383zM10.327 15.855h1.168l0.17-0.17v-0.659l-0.17-0.17h-1.168v0.999zM14.018 14.303h2.453v0.558h-1.794v0.858h1.653v0.548h-1.653v0.873h1.794v0.558h-2.453v-3.394zM16.837 14.303h0.591l1.513 2.303h0.010v-2.303h0.635v3.394h-0.591l-1.513-2.298h-0.010v2.298h-0.635v-3.394zM20.096 14.303h2.453v0.558h-1.794v0.858h1.653v0.548h-1.653v0.873h1.794v0.558h-2.453v-3.394zM25.582 16.572v1.125h-0.659v-0.975l-0.291-0.325h-1.057v1.299h-0.659v-3.394h2.128l0.519 0.524v1.028l-0.33 0.335 0.349 0.383zM23.575 15.855h1.169l0.17-0.17v-0.659l-0.17-0.17h-1.169v0.999zM26.018 17.139v-2.279l0.558-0.558h1.687l0.548 0.548v0.519h-0.659v-0.276l-0.228-0.228h-0.999l-0.247 0.247v1.775l0.247 0.247h1.009l0.238-0.238v-0.529h-0.727v-0.562h1.367v1.333l-0.558 0.558h-1.678l-0.558-0.558zM30.019 16.31l-1.207-2.007h0.722l0.81 1.392h0.010l0.81-1.392h0.722l-1.207 2.007v1.387h-0.659v-1.387z"></path>
</symbol>
<symbol id="icon-youtube" viewBox="0 0 32 32">
<path d="M24.24 6c-1.36-0.080-4.16-0.16-8.4-0.16h-0.56c-4.080 0-6.8 0.080-8.16 0.24-1.84 0.16-3.12 0.64-3.84 1.28-0.64 0.56-1.12 1.6-1.28 2.96-0.080 0.88-0.16 2.72-0.16 5.52v0.4c0 2.64 0.080 4.48 0.24 5.36 0.24 1.28 0.64 2.24 1.44 2.8 0.8 0.64 2.16 1.040 4.080 1.2 1.36 0.080 4.16 0.16 8.4 0.16h0.56c4.080 0 6.8-0.080 8.16-0.24 1.84-0.16 3.12-0.64 3.84-1.28 0.64-0.56 1.12-1.6 1.28-2.96 0.080-0.88 0.16-2.72 0.16-5.52v-0.4c0-2.64-0.080-4.48-0.24-5.36-0.24-1.28-0.64-2.24-1.44-2.8-0.8-0.64-2.16-1.040-4.080-1.2zM21.12 15.84l-8.8 5.28v-10.56l8.8 5.28z"></path>
</symbol>
<symbol id="icon-arrow-top" viewBox="0 0 32 32">
<path fill="#f4f4f4" style="fill: var(--color1, #f4f4f4)" d="M16.747 7.652v17.019h-1.811v-17.019l-8.509 8.509-1.28-1.28 10.693-10.696 10.696 10.695-1.28 1.28-8.51-8.509z"></path>
</symbol>
<symbol id="icon-close" viewBox="0 0 32 32">
<path stroke-linejoin="round" stroke-linecap="round" stroke-miterlimit="4" stroke-width="2.6667" d="M22.667 9.333l-13.333 13.333M9.333 9.333l13.333 13.333"></path>
</symbol>
<symbol id="icon-inverted-commas" viewBox="0 0 32 32">
<path fill="#f4f4f4" style="fill: var(--color1, #f4f4f4)" d="M8.2 17.468c1.547-0.612 2.787-0.452 3.72 0.481s1.211 2.421 0.831 4.463c-0.291 1.517-0.933 2.684-1.924 3.5-0.963 0.787-2.087 1.181-3.369 1.181-1.751 0-2.96-0.671-3.631-2.013-0.672-1.369-0.803-3.207-0.395-5.512 0.233-1.253 0.613-2.523 1.137-3.805 0.525-1.284 1.227-2.596 2.1-3.937 0.876-1.343 2.013-2.509 3.413-3.5 1.309-0.943 2.874-1.62 4.57-1.916l0.067-0.010-0.437 4.637c-1.429 0.292-2.699 1.035-3.807 2.231-1.108 1.167-1.867 2.567-2.275 4.2zM21.369 17.468c1.547-0.612 2.787-0.452 3.72 0.481s1.209 2.421 0.831 4.463c-0.292 1.517-0.933 2.684-1.925 3.5-0.963 0.787-2.085 1.181-3.368 1.181-1.751 0-2.96-0.671-3.632-2.013-0.671-1.369-0.801-3.207-0.393-5.512 0.233-1.253 0.613-2.523 1.137-3.805 0.525-1.284 1.225-2.596 2.1-3.937 0.875-1.343 2.013-2.509 3.413-3.5 1.309-0.943 2.873-1.619 4.567-1.916l0.067-0.010-0.437 4.637c-1.429 0.292-2.697 1.035-3.805 2.231-1.109 1.167-1.867 2.567-2.276 4.2z"></path>
</symbol>
<symbol id="icon-remove-icon" viewBox="0 0 32 32">
<path stroke-linejoin="round" stroke-linecap="round" stroke-miterlimit="4" stroke-width="2.4" d="M21.333 8v-1.067c0-1.493 0-2.24-0.29-2.81-0.261-0.505-0.662-0.906-1.152-1.159l-0.015-0.007c-0.57-0.29-1.317-0.29-2.81-0.29h-2.134c-1.493 0-2.24 0-2.81 0.29-0.502 0.256-0.91 0.664-1.166 1.166-0.29 0.57-0.29 1.317-0.29 2.81v1.067M13.333 15.333v6.667M18.667 15.333v6.667M4 8h24M25.333 8v14.933c0 2.24 0 3.36-0.435 4.216-0.391 0.756-0.992 1.358-1.727 1.738l-0.022 0.011c-0.854 0.435-1.976 0.435-4.216 0.435h-5.866c-2.24 0-3.36 0-4.216-0.435-0.756-0.391-1.358-0.992-1.738-1.727l-0.011-0.022c-0.435-0.856-0.435-1.976-0.435-4.216v-14.933"></path>
</symbol>
<symbol id="icon-running-stick-figure" viewBox="0 0 32 32">
<path d="M29.648 9.451c-0.219-0.26-0.545-0.424-0.909-0.424-0.29 0-0.556 0.104-0.762 0.277l0.002-0.002-3.28 2.757-1.51-3.739c-0.056-0.14-0.134-0.261-0.229-0.364l0.001 0.001c-0.321-0.716-0.875-1.281-1.563-1.608l-0.019-0.008c-0.32-0.146-0.651-0.224-0.982-0.262-0.072-0.038-0.139-0.088-0.222-0.114l-5.776-1.61c-0.093-0.026-0.199-0.041-0.31-0.041-0.223 0-0.432 0.062-0.611 0.169l0.005-0.003c-0.33 0.108-0.59 0.352-0.717 0.664l-0.003 0.008-2.174 5.592c-0.050 0.127-0.079 0.273-0.079 0.427 0 0.501 0.31 0.929 0.748 1.103l0.008 0.003c0.126 0.050 0.272 0.079 0.425 0.079 0.5 0 0.928-0.31 1.103-0.748l0.003-0.008 1.837-4.723 2.63 0.731c-0.064 0.104-0.133 0.202-0.186 0.312l-3.371 7.312c-0.048 0.107-0.075 0.216-0.11 0.326l-4.098 6.87-6.859 2.294c-0.42 0.323-0.687 0.826-0.687 1.391 0 0.968 0.784 1.752 1.752 1.752 0.381 0 0.733-0.122 1.021-0.328l-0.005 0.004 7.019-2.416c0.216-0.157 0.371-0.362 0.49-0.581 0.088-0.094 0.189-0.168 0.256-0.285l2.443-4.096 4.336 3.696-4.64 5.229c-0.273 0.307-0.439 0.714-0.439 1.16 0 0.967 0.784 1.751 1.751 1.751 0.521 0 0.99-0.228 1.31-0.589l0.002-0.002 5.79-6.523c0.179-0.202 0.288-0.432 0.36-0.675 0.043-0.133 0.043-0.269 0.053-0.406 0-0.069 0.027-0.131 0.021-0.195-0.009-0.509-0.239-0.963-0.598-1.272l-0.002-0.002-3.992-3.403c0.288-0.274 0.533-0.6 0.709-0.982l2.586-5.6 0.829 2.208c0.031 0.211 0.116 0.398 0.242 0.551l-0.002-0.002c0.121 0.138 0.273 0.247 0.445 0.314l0.008 0.003c0.018 0.008 0.038 0.010 0.059 0.016 0.096 0.040 0.208 0.069 0.325 0.080l0.005 0c0.024 0.002 0.052 0.003 0.081 0.003 0.116 0 0.227-0.017 0.332-0.050l-0.008 0.002h0.005c0.037-0.010 0.074-0.003 0.11-0.019 0.186-0.076 0.343-0.192 0.464-0.337l0.002-0.002 4.71-3.997c0.501-0.422 0.288-1.168-0.133-1.667zM23.69 6.602c1.823 0 3.301-1.478 3.301-3.301s-1.478-3.301-3.301-3.301v0c-1.823 0-3.301 1.478-3.301 3.301s1.478 3.301 3.301 3.301v0z"></path>
</symbol>
<symbol id="icon-search" viewBox="0 0 32 32">
<path stroke-linejoin="round" stroke-linecap="round" stroke-miterlimit="4" stroke-width="2.6667" d="M14.667 25.333c5.891 0 10.667-4.776 10.667-10.667s-4.776-10.667-10.667-10.667v0c-5.891 0-10.667 4.776-10.667 10.667s4.776 10.667 10.667 10.667v0zM28 28l-5.801-5.799"></path>
</symbol>
<symbol id="icon-sport-weight" viewBox="0 0 32 32">
<path d="M7.36 9.142h-1.92c-0.533 0-0.96 0.459-0.96 1.029v4.458h-0.96c-0.176 0-0.32 0.154-0.32 0.342v2.058c0 0.189 0.144 0.342 0.32 0.342h0.96v4.458c0 0.57 0.429 1.029 0.96 1.029h1.92c0.533 0 0.96-0.459 0.96-1.029v-11.658c0-0.57-0.429-1.029-0.96-1.029zM28.48 14.629h-0.96v-4.458c0-0.57-0.427-1.029-0.96-1.029h-1.92c-0.531 0-0.96 0.459-0.96 1.029v11.658c0 0.57 0.429 1.029 0.96 1.029h1.92c0.531 0 0.96-0.459 0.96-1.029v-4.458h0.96c0.176 0 0.32-0.154 0.32-0.342v-2.058c0-0.189-0.144-0.342-0.32-0.342zM21.44 6.4h-1.92c-0.531 0-0.96 0.459-0.96 1.029v7.2h-5.12v-7.2c0-0.57-0.429-1.029-0.96-1.029h-1.92c-0.531 0-0.96 0.459-0.96 1.029v17.142c0 0.57 0.429 1.029 0.96 1.029h1.92c0.533 0 0.96-0.459 0.96-1.029v-7.2h5.12v7.2c0 0.57 0.429 1.029 0.96 1.029h1.92c0.531 0 0.96-0.459 0.96-1.029v-17.142c0-0.57-0.429-1.029-0.96-1.029z"></path>
</symbol>
<symbol id="icon-30" viewBox="0 0 32 32">
<path stroke-linejoin="miter" stroke-linecap="butt" stroke-miterlimit="4" stroke-width="2.1333" d="M15.168 13.852l0.832-0.156 0.832 0.156 0.72 0.446 0.51 0.676 0.231 0.814-0.078 0.843-0.378 0.758-0.626 0.571-0.789 0.306h-0.847l-0.789-0.306-0.626-0.571-0.378-0.757-0.077-0.844 0.231-0.814 0.51-0.676 0.72-0.446z"></path>
</symbol>
<symbol id="icon-arrow-right" viewBox="0 0 32 32">
<path stroke-linejoin="round" stroke-linecap="round" stroke-miterlimit="4" stroke-width="2.6" d="M15 28l13-13M28 15l-13-13M28 15h-26"></path>
</symbol>
<symbol id="icon-heart-icon" viewBox="0 0 32 32">
<path stroke-linejoin="round" stroke-linecap="round" stroke-miterlimit="4" stroke-width="2.4" d="M27.787 6.147c-1.327-1.328-3.161-2.149-5.186-2.149s-3.859 0.821-5.186 2.149l-0 0-1.414 1.413-1.413-1.413c-1.327-1.327-3.161-2.148-5.186-2.148-4.051 0-7.335 3.284-7.335 7.335 0 2.025 0.821 3.859 2.148 5.186v0l11.786 11.787 11.787-11.787c1.327-1.327 2.148-3.161 2.148-5.186s-0.821-3.859-2.148-5.186v0z"></path>
</symbol>
<symbol id="icon-star-icon" viewBox="0 0 32 32">
<path fill="#f4f4f4" style="fill: var(--color1, #f4f4f4)" opacity="0.2" d="M14.478 2.283c0.48-1.474 2.565-1.474 3.043 0l2.43 7.478c0.215 0.646 0.814 1.103 1.52 1.104h7.864c1.55 0 2.194 1.984 0.941 2.896l-6.362 4.621c-0.401 0.294-0.659 0.764-0.659 1.294 0 0.177 0.029 0.347 0.082 0.506l-0.003-0.011 2.429 7.478c0.48 1.475-1.208 2.701-2.462 1.789l-6.36-4.621c-0.26-0.191-0.587-0.306-0.941-0.306s-0.68 0.115-0.945 0.309l0.004-0.003-6.362 4.621c-1.253 0.912-2.941-0.315-2.461-1.789l2.429-7.478c0.050-0.148 0.078-0.318 0.078-0.495 0-0.53-0.258-1-0.655-1.291l-0.004-0.003-6.362-4.621c-1.253-0.912-0.608-2.896 0.941-2.896h7.862c0 0 0 0 0 0 0.706 0 1.306-0.458 1.518-1.093l0.003-0.011 2.432-7.478z"></path>
</symbol>
<symbol id="icon-sun" viewBox="0 0 38 38">
<path fill-rule="evenodd" clip-rule="evenodd" d="M16.9997 16.1754L17.433 16.6215L12.107 1.29404L18.2093 15.6512L18.453 16.2246L18.474 15.6018L19 0L19.526 15.6015L19.547 16.2246L19.7906 15.6515L25.893 1.29404L20.7716 16.0328L20.567 16.6215L21.0003 16.1754L31.8551 5.00141L21.7779 16.8869L21.3755 17.3616L36.081 10.6214L22.4091 18.0484L21.8631 18.345L22.4825 18.3086L38 17.395L21.964 19.439L37.353 24.4074L22.2672 20.6459L21.6646 20.4957L22.1469 20.8878L34.2273 30.7115L21.5132 21.7311L21.0054 21.3724L21.314 21.913L29.0451 35.456L20.4198 22.4694L20.0753 21.9507L22.5062 38L19 22.1526L15.4938 38L17.8313 22.5671L17.9247 21.9507L17.5804 22.4691L8.95494 35.456L16.6858 21.9133L16.9946 21.3724L16.4871 21.7309L3.77271 30.7115L15.8529 20.888L16.3354 20.4957L15.7332 20.6458L0.647022 24.4074L15.445 19.6298L16.036 19.439L0 17.395L16.1369 18.345L15.5912 18.0486L1.91903 10.6214L16.6245 17.3616L6.14495 5.00141L16.9997 16.1754ZM18.1089 16.853L17.3381 17.3323L16.7918 18.0589L16.5437 18.9346L16.6273 19.8411L17.0314 20.6561L17.7014 21.2695L18.5467 21.5984H19.4533L20.2986 21.2695L20.9686 20.6561L21.3727 19.8411L21.4563 18.9346L21.2082 18.0589L20.6619 17.3323L19.8911 16.853L19 16.6857L18.1089 16.853Z" fill="#242424"/>
</symbol>
</defs>
</svg>
